# Blender 3.5.1
# www.blender.org
mtllib fireplace2.mtl
o Cube
v -2.277086 -1.469453 1.261164
v -2.277086 1.469453 1.261164
v -2.277086 -1.469453 -1.261164
v -1.654338 -1.313363 -0.664393
v -2.277086 1.469453 -1.261164
v -1.654338 0.686637 -0.664393
v 2.277086 -1.469453 1.261164
v 2.277086 1.469453 1.261164
v 2.277086 -1.469453 -1.261164
v 1.693127 -1.313363 -0.664393
v 2.277086 1.469453 -1.261164
v 1.693127 0.686637 -0.664393
v 1.693127 0.686637 1.261164
v -1.654338 -1.313363 1.261164
v -1.654338 0.686637 1.261164
v 1.693127 -1.313363 1.261164
vn -1.0000 -0.0000 -0.0000
vn -0.0000 -0.0000 -1.0000
vn 1.0000 -0.0000 -0.0000
vn -0.0000 -0.0000 1.0000
vn -0.0000 -1.0000 -0.0000
vn -0.0000 1.0000 -0.0000
vt 0.375000 0.000000
vt 0.375000 1.000000
vt 0.125000 0.750000
vt 0.625000 0.000000
vt 0.625000 1.000000
vt 0.875000 0.750000
vt 0.375000 0.250000
vt 0.125000 0.500000
vt 0.375000 0.250000
vt 0.125000 0.500000
vt 0.625000 0.250000
vt 0.875000 0.500000
vt 0.625000 0.250000
vt 0.875000 0.500000
vt 0.375000 0.750000
vt 0.625000 0.750000
vt 0.375000 0.500000
vt 0.375000 0.500000
vt 0.625000 0.500000
vt 0.625000 0.500000
vt 0.558409 0.782056
vt 0.625000 0.683833
vt 0.388278 0.965814
vt 0.375000 0.066167
vt 0.125000 0.683833
vt 0.558409 0.965814
vt 0.625000 0.066167
vt 0.875000 0.683833
vt 0.388278 0.782056
vt 0.375000 0.683833
s 0
f 1/1/1 2/4/1 5/11/1 3/7/1
f 3/7/2 5/11/2 11/19/2 9/17/2
f 9/17/3 11/19/3 8/16/3 7/15/3
f 16/29/4 7/15/4 8/16/4 2/5/4 1/2/4 14/23/4 15/26/4 13/21/4
f 14/23/4 1/2/4 7/15/4 16/29/4
f 3/8/5 9/17/5 7/15/5 1/3/5
f 11/19/6 5/12/6 2/6/6 8/16/6
f 4/9/3 6/13/3 15/27/3 14/24/3
f 4/9/4 10/18/4 12/20/4 6/13/4
f 12/20/1 10/18/1 16/30/1 13/22/1
f 16/30/6 10/18/6 4/10/6 14/25/6
f 6/14/5 12/20/5 13/22/5 15/28/5
